<svg xmlns="http://www.w3.org/2000/svg" viewBox="0 0 186.63 186.63"><defs><style>.cls-1{fill:#00c364;}.cls-2{fill:#f1f1f1;}</style></defs><title>ask</title><g id="Шар_2" data-name="Шар 2"><g id="Шар_1-2" data-name="Шар 1"><circle class="cls-1" cx="93.31" cy="93.31" r="93.31"/><path class="cls-2" d="M105.85,115.76H76v-3a37,37,0,0,1,1.73-12.38,27.39,27.39,0,0,1,5.15-8.69q3.42-3.93,15.37-13.83,6.36-5.19,6.37-9.51A8.79,8.79,0,0,0,102,61.63q-2.55-2.39-7.74-2.39a12.47,12.47,0,0,0-9.24,3.69q-3.66,3.71-4.68,12.89l-30.5-3.77Q51.46,55.24,62.11,45T94.77,34.71q17.13,0,27.67,7.15,14.31,9.68,14.31,25.79a24.92,24.92,0,0,1-3.7,12.89Q129.36,86.75,118,95.71q-8,6.3-10,10.1A20.7,20.7,0,0,0,105.85,115.76ZM75,123.7h32v28.22H75Z"/></g></g></svg>