<svg xmlns="http://www.w3.org/2000/svg" viewBox="0 0 539.87 281.8"><defs><style>.cls-1{fill:#334a5e;}.cls-2{fill:#40596b;}.cls-3{fill:#3c5265;}.cls-4{fill:#5c797d;}.cls-5{fill:#f1f1f1;}.cls-6{fill:#4ca2b7;}.cls-7{fill:#6cb1ba;}.cls-8{fill:#5b797d;}.cls-9{fill:#006c37;}.cls-10{fill:#abb2b9;}.cls-11{fill:#ccd5df;}.cls-12{fill:#01924b;}.cls-13{fill:#00c364;}</style></defs><title>ecocart</title><g id="Шар_2" data-name="Шар 2"><g id="Шар_1-2" data-name="Шар 1"><path class="cls-1" d="M156.78,217c11.85,0,23.7-.12,35.54,0a5.43,5.43,0,0,0,5.39-3c17.57-29,59.52-34.27,83.9-10.62a52.38,52.38,0,0,1,10.17,12.83c1.13.8,2.42.42,3.64.42,34.95,0,69.9.21,104.85-.16,6.41-.07,12.93,0,19.32-.93,3.18-2.51,4.76-6.3,7.43-9.26a55,55,0,0,1,36.77-18.61,53.66,53.66,0,0,1,38,10.56,59.92,59.92,0,0,1,13.45,13.89c.86,1.22,1.54,2.59,2.9,3.37,1.53.76,3.18.5,4.77.45A105.35,105.35,0,0,1,539.87,217v26.24c-6.45.84-12.93.17-19.4.35-3.49.09-7-.18-10.48.08-2.93.21-4.06-.91-4.24-3.72a36.26,36.26,0,0,0-4.37-14.22c-8-15.68-25.3-20.88-36.49-19.28-16.92,2.43-29.5,14.17-32.44,29.92-1.35,7.24-1.35,7.24-8.56,7.23-47.2,0-94.4.06-141.6,0-1.32-.74-1.21-2.07-1.33-3.28-1.77-19-16.27-33.35-35.52-34.08a36.9,36.9,0,0,0-37.86,30.27c-.28,1.46-.48,3-.82,4.41-.47,2-1.57,2.78-3.71,2.77-14.61-.08-29.21,0-43.81-.07-1,0-2.34.59-2.83-1,0-7.32,0-14.63,0-21.93C156.43,219.41,156.09,218.15,156.78,217Z"/><path class="cls-2" d="M282,243.17c47.79,0,95.59-.07,143.39.13,4.18,0,5.38-1.53,5.73-5.06.89-9.09,5-16.6,11.65-22.71,14-12.9,33.33-14,48.63-3,9.5,6.83,14.61,16.44,15.41,28.14.18,2.73,1.68,2.53,3.47,2.53q14.79,0,29.58,0V244c-10.23-.08-20.46-.14-30.69-.27-2,0-2.1,1.06-2.25,2.6-1.74,18-13.61,31.25-31,34.77-20.88,4.24-41.9-10.65-44.85-31.78a5.29,5.29,0,0,1-.15-1.11c.26-3.7-1.41-4.57-5.06-4.56-46.33.15-92.66.09-139,.11-1.6,0-3.26-.34-4.78.52A.78.78,0,0,1,282,243.17Z"/><path class="cls-2" d="M282,243.17l.09,1.08c.2,18.25-14.25,34.71-32.58,37.12-19.47,2.56-37.75-9.56-42.49-28.16-.24-1-.51-1.94-.67-2.92-1.12-6.57-1.11-6.6-7.69-6.57q-21.31.1-42.65.25v-.75a.5.5,0,0,1,.82-.15c15.2,0,30.42,0,45.62.18,3.56.05,3.43-2.41,3.68-4.35a37.93,37.93,0,0,1,6.27-17c6.32-9.2,15.06-14.47,26.06-16.26,13.1-2.14,24.1,2.15,33.15,11.24C278.7,224,282.55,232.84,282,243.17Z"/><path class="cls-3" d="M156.84,243.07l-.82.15V217h.76Z"/><path class="cls-4" d="M539.87,217c-6.82,0-13.64,0-20.46,0-1,0-2,.24-2.75-.69,1.24-1.33,2.93-1.32,4.48-1.19,4.23.35,8.63-1.17,12.67,1.13h6.06Z"/><path class="cls-5" d="M317.13,62.61a69.27,69.27,0,0,1-5.6-5.5c-1.78-2.14-2.88-1.7-4.64.1-2.39,2.45-4.54,6.81-7.52,6.56-2.59-.21-5-4.09-7.25-6.61-1.76-2-2.83-1.91-4.63,0-2.35,2.51-4.59,6.8-7.52,6.64-2.54-.14-5-4.09-7.25-6.58-1.68-1.86-2.83-2.27-4.62-.12s-4.1,4-6.06,6.13c-1.12,1.21-1.91,1.17-3,0-2.14-2.28-4.46-4.38-6.57-6.68-1.2-1.31-2-1.38-3.25,0-2.26,2.47-4.68,4.78-7.79,7.92V1.08c1-.66,2.19-.37,3.28-.37,23.31,0,46.62,0,69.92-.07,2.88,0,3.8.64,3.77,3.68-.15,18.32-.05,36.64-.12,55C318.26,60.38,319.32,62.14,317.13,62.61Z"/><path class="cls-6" d="M404.46,209.74q0-93.27,0-186.55C404.2,10.82,394.85,1.11,382.17,0q-29,0-58,0a18.89,18.89,0,0,0-4.2.3H240.56l-.22-.1a20.8,20.8,0,0,0-4.1-.2q-29,0-58.06,0C166.5,1,158.86,7.85,156,19.81V217a5.72,5.72,0,0,0,1,.69,13.1,13.1,0,0,0,4.09.32c9.84,0,19.69-.11,29.54.07,3.89.07,6.31-1.33,8.62-4.57C212.49,195,230.5,187,253.11,190.28c15,2.21,26.45,10.39,35.31,22.45,1.23,1.68,2.06,3.78,4.36,4.38a9.26,9.26,0,0,0,1.48.14q52.76.12,105.5,0c1.37,0,2.77,0,3.91-.94C405,214.26,404.46,212,404.46,209.74ZM312.27,56.55c-2-1.88-3.77-2.15-5.76,0-1.54,1.63-3.23,3.12-4.75,4.78s-2.86,1.61-4.37,0c-1.34-1.47-2.78-2.86-4.23-4.24-3-2.8-3.66-2.81-6.5-.13-1.55,1.46-3.06,2.95-4.5,4.5s-2.7,1.48-4.11,0-3-3-4.51-4.49c-2.79-2.6-3.55-2.61-6.26-.11-1.46,1.35-2.91,2.74-4.23,4.23-1.76,2-3.27,1.8-5-.08-1.42-1.57-3-3-4.49-4.5-1.87-1.89-3.59-1.87-5.48,0a54,54,0,0,1-5.52,5.22,36.59,36.59,0,0,1-.14-4.34c0-17.23,0-34.45,0-51.68,0-1.55.39-3.35-.72-4.55,24.09,0,48.19,0,72.28-.08,2.28,0,3.43.4,3.85,2a26.2,26.2,0,0,0-.17,3.69c0,16.58,0,33.17,0,49.75,0,1.35.31,2.74-.3,4.1C314.78,60.34,313.84,58,312.27,56.55Z"/><path class="cls-7" d="M403.52,21.89c.94,1.49.56,3.15.57,4.74q.09,23.17.1,46.35c1.25,1.46,1.19,3.25,1.19,5q0,66.72,0,133.45a8.84,8.84,0,0,1-.71,4.39.94.94,0,0,1-1.26.41q0-95.11,0-190.22C403.41,24.63,403.48,23.26,403.52,21.89Z"/><path class="cls-8" d="M403.41,216.22h.82a26.13,26.13,0,0,1,17.13.07c-1.13,1.17-2.59.68-3.9.68q-60.93.06-121.87,0c-1.29,0-2.78.59-3.81-.8Z"/><path class="cls-9" d="M421.36,216.28l-17.13-.07q0-71.61,0-143.23c26.46,0,52.92-.11,79.37,0a35.86,35.86,0,0,1,34.61,25.44c5.36,17.36,10.22,34.88,15.25,52.34a13.32,13.32,0,0,1,.39,3.68q0,30.9,0,61.78l-17.15.06c-10.69-17.55-26.08-27.16-46.81-27.8-15-.46-27.71,5-38.67,14.79A38.83,38.83,0,0,0,421.36,216.28Z"/><path class="cls-10" d="M453.59,243.64a14.94,14.94,0,0,1,15.27-15.47,15.51,15.51,0,0,1,15.46,15.11c.17,8.28-7.14,15.67-15.46,15.62A15.44,15.44,0,0,1,453.59,243.64Z"/><path class="cls-10" d="M228.72,243.49a15,15,0,0,1,15.37-15.32,15.21,15.21,0,0,1,15.37,15.41,15.37,15.37,0,0,1-30.74-.09Z"/><path class="cls-11" d="M514.43,150.24c.31,1.63-1,1-1.58,1-29.44,0-58.88,0-88.33.07-2.23,0-2.68-.86-2.67-2.86,0-18.34,0-36.68,0-55,0-.85-.53-2.12,1-2.36,6.79,2.67,12.37,7.37,18.42,11.24,23.19,14.83,46.16,30,69.31,44.89A18.63,18.63,0,0,1,514.43,150.24Z"/><path class="cls-5" d="M514.43,150.24c-3-.78-5.25-2.81-7.72-4.41-22.38-14.46-44.66-29.09-67-43.58-5.63-3.65-11.36-7.17-16.75-11.18,20.71,0,41.43-.25,62.13.05a16,16,0,0,1,15.55,11.56C505.65,118.4,509.87,134.37,514.43,150.24Z"/><path class="cls-12" d="M250.94,149.23A65.16,65.16,0,0,0,242,155c-6,4.37-11.38,9.34-15.29,15.74a33.22,33.22,0,0,0-4.84,13.8,3.39,3.39,0,0,1-1.86,2.79h-1.6a3.5,3.5,0,0,1-1.48-3.76c1.71-13.27,8.7-23.27,19.08-31.21a101.38,101.38,0,0,1,10.4-6.91c.38-.23.72-.5,1.08-.75,5.43-2.89,10.84-5.83,16.3-8.67A174.13,174.13,0,0,0,280,126.56a156.78,156.78,0,0,0,20.95-17.09,1.45,1.45,0,0,0,.59-1.38c-.28-2.09-.52-4.2-.74-6.3-.44-4.17-.84-8.34-1.28-12.5a2.7,2.7,0,0,1,2-2.79,2.27,2.27,0,0,1,2.72,1.3,8.06,8.06,0,0,1,.54,3c.44,4,.75,8.08,1.11,12.12,0,.22-.05.48.21.59s.48-.14.64-.34c1.19-1.43,2.38-2.85,3.54-4.3a107.33,107.33,0,0,0,12.29-19,84.3,84.3,0,0,0,6.41-16.3c.89-3.36,2-6.7,1.95-10.24a2.83,2.83,0,0,1,2.51-2.37A2.51,2.51,0,0,1,336,53.45a49,49,0,0,1-1.3,7.42,101.27,101.27,0,0,1-14.33,32.38,123.12,123.12,0,0,1-17.44,21,158.63,158.63,0,0,1-14.71,12.57,22.83,22.83,0,0,0-3.68,2.84c3.28.6,6.4,1.16,9.51,1.75,2.34.44,4.68.85,7,1.38a2.35,2.35,0,0,1,1.84,2.06,2.46,2.46,0,0,1-1.18,2.38,2.91,2.91,0,0,1-2.44.24q-10-1.85-20-3.8a2,2,0,0,0-1.63.27c-5.92,3.75-12.18,6.88-18.27,10.32A85,85,0,0,0,250.94,149.23Z"/><path class="cls-13" d="M250.94,149.23a85,85,0,0,1,8.43-5c6.09-3.44,12.35-6.57,18.27-10.32a2,2,0,0,1,1.63-.27q10,2,20,3.8a2.91,2.91,0,0,0,2.44-.24,2.46,2.46,0,0,0,1.18-2.38,2.35,2.35,0,0,0-1.84-2.06c-2.32-.53-4.66-.94-7-1.38-3.11-.59-6.23-1.15-9.51-1.75a22.83,22.83,0,0,1,3.68-2.84,158.63,158.63,0,0,0,14.71-12.57,123.12,123.12,0,0,0,17.44-21,101.27,101.27,0,0,0,14.33-32.38,49,49,0,0,0,1.3-7.42,149.35,149.35,0,0,1,4.66,19.77,122.73,122.73,0,0,1,1.89,25.32c-.48,13.39-3.19,26.24-10.16,37.87-8.89,14.82-21.75,24.23-38.89,27-14.66,2.4-28.05-.76-39.4-10.83A20.79,20.79,0,0,1,250.94,149.23Z"/><path class="cls-13" d="M330.89,53.26c0,3.54-1.06,6.88-1.95,10.24a84.3,84.3,0,0,1-6.41,16.3,107.33,107.33,0,0,1-12.29,19c-1.16,1.45-2.35,2.87-3.54,4.3-.16.2-.33.46-.64.34s-.19-.37-.21-.59c-.36-4-.67-8.09-1.11-12.12a8.06,8.06,0,0,0-.54-3,2.27,2.27,0,0,0-2.72-1.3,2.7,2.7,0,0,0-2,2.79c.44,4.16.84,8.33,1.28,12.5.22,2.1.46,4.21.74,6.3a1.45,1.45,0,0,1-.59,1.38A156.78,156.78,0,0,1,280,126.56,174.13,174.13,0,0,1,263.82,136c-5.46,2.84-10.87,5.78-16.3,8.67A41.3,41.3,0,0,1,271.35,82.8c4.8-1.39,9.76-1.73,14.64-2.6,14.9-2.65,28.2-8.5,38.93-19.48A60.23,60.23,0,0,0,330.89,53.26Z"/><rect class="cls-10" y="32.53" width="125.88" height="18.35" rx="5.98"/><rect class="cls-10" x="33.88" y="105.37" width="92" height="18.35" rx="5.12"/><rect class="cls-10" y="178.2" width="125.88" height="18.35" rx="5.98"/></g></g></svg>